<?xml version="1.0" encoding="UTF-8" standalone="no"?>
<svg
   xmlns:dc="http://purl.org/dc/elements/1.1/"
   xmlns:cc="http://creativecommons.org/ns#"
   xmlns:rdf="http://www.w3.org/1999/02/22-rdf-syntax-ns#"
   xmlns:svg="http://www.w3.org/2000/svg"
   xmlns="http://www.w3.org/2000/svg"
   viewBox="0 0 1066.6667 1066.6667"
   height="1066.6667"
   width="1066.6667"
   xml:space="preserve"
   id="svg2"
   version="1.1"><metadata
     id="metadata8"><rdf:RDF><cc:Work
         rdf:about=""><dc:format>image/svg+xml</dc:format><dc:type
           rdf:resource="http://purl.org/dc/dcmitype/StillImage" /></cc:Work></rdf:RDF></metadata><defs
     id="defs6"><clipPath
       id="clipPath18"
       clipPathUnits="userSpaceOnUse"><path
         id="path16"
         d="M 0,800 H 800 V 0 H 0 Z" /></clipPath></defs><g
     transform="matrix(1.3333333,0,0,-1.3333333,0,1066.6667)"
     id="g10"><g
       id="g12"><g
         clip-path="url(#clipPath18)"
         id="g14"><g
           transform="translate(147.9683,192.1846)"
           id="g20"><path
             id="path22"
             style="fill:#000000;fill-opacity:1;fill-rule:nonzero;stroke:none"
             d="m 0,0 c -1.362,-0.178 -2.554,-0.419 -3.575,-0.726 -1.02,-0.309 -2.061,-0.792 -3.119,-1.452 -1.06,-0.659 -1.93,-1.562 -2.61,-2.705 v -12.54 l 4.198,5.017 H 6.24 c 1.285,0 2.249,0.527 2.893,1.583 0.641,1.055 0.964,2.288 0.964,3.696 L 10.21,0 Z M -23.033,7.523 H -9.304 V 3.96 c 1.588,1.495 3.29,2.462 5.105,2.904 1.816,0.438 3.064,0.659 3.745,0.659 H 26.095 C 25.338,6.554 24.771,5.543 24.393,4.487 24.013,3.432 23.826,2.066 23.826,0.396 v -12.407 c 0,-2.2 -0.681,-4.07 -2.043,-5.609 -1.361,-1.541 -3.025,-2.31 -4.991,-2.31 h -39.825 z m -32.335,29.83 c -1.211,-0.791 -2.118,-1.54 -2.723,-2.245 -0.606,-0.704 -0.908,-1.101 -0.908,-1.187 v -4.487 l 4.199,5.015 H 3.063 c 1.286,0 2.4,0.528 3.347,1.583 0.945,1.057 1.418,2.288 1.418,3.697 h -54.346 c -1.815,0 -3.386,-0.178 -4.709,-0.529 -1.324,-0.352 -2.705,-0.97 -4.141,-1.847 m -17.359,9.898 h 13.728 v -4.487 0.132 c 0.529,0.439 1.096,0.878 1.703,1.321 1.966,1.319 3.875,2.178 5.729,2.573 1.853,0.396 3.12,0.549 3.801,0.461 h 71.478 c -0.757,-0.88 -1.324,-1.847 -1.701,-2.902 -0.38,-1.057 -0.568,-2.421 -0.568,-4.093 v -5.411 c 0,-2.2 -0.681,-4.072 -2.042,-5.61 -1.361,-1.541 -3.026,-2.309 -4.992,-2.309 H -72.727 Z M -54.346,9.503 C -54.953,8.534 -55.444,7.567 -55.822,6.6 h 30.635 c -0.531,-0.528 -0.928,-1.079 -1.192,-1.65 -0.267,-0.574 -0.511,-1.299 -0.738,-2.178 -0.227,-0.88 -0.34,-1.98 -0.34,-3.299 v -11.484 c 0,-2.2 -0.7,-4.07 -2.099,-5.609 -1.4,-1.541 -3.046,-2.31 -4.935,-2.31 h -15.317 l 3.971,7.524 h -0.114 c 1.285,0 2.383,0.527 3.291,1.583 0.908,1.055 1.361,2.288 1.361,3.696 v 6.203 h -15.09 v -0.923 -4.355 l -18.153,-14.521 v 10.56 l 4.425,4.224 v 5.015 H -75.79 V 6.6 h 5.673 v 2.903 h 13.501 z m -22.125,53.191 v 7.523 h 44.021 v 5.545 h 15.885 c -0.53,-0.792 -0.965,-1.585 -1.305,-2.377 -0.34,-0.791 -0.587,-1.847 -0.737,-3.168 h 33.923 l 1.021,1.848 h 8.964 l -5.559,-9.371 h -38.463 v -4.883 h 41.412 v -7.524 h -96.552 v 7.524 h 41.411 v 4.883 z M 25.414,19.402 V 12.143 H -77.038 v 7.259 h 11.345 l -0.567,1.849 -2.269,0.264 v 4.487 l 15.884,-2.508 0.794,-4.092 H 1.134 l 0.908,4.092 15.77,2.508 v -4.487 l -2.269,-0.264 -0.567,-1.849 z" /></g><path
           id="path24"
           style="fill:#000000;fill-opacity:1;fill-rule:nonzero;stroke:none"
           d="m 270.049,210.268 h -6.24 v -30.885 h 6.24 z m -6.24,31.94 h 13.728 l 3.857,-11.615 4.198,-1.979 v -7.523 l -17.813,7.919 z m -19.515,-62.825 h 7.261 v 30.885 h -7.261 z m -19.515,0 h 7.148 v 30.092 c -1.211,-0.353 -2.422,-0.88 -3.631,-1.583 -1.211,-0.882 -2.099,-1.98 -2.667,-3.3 -0.567,-1.321 -0.85,-2.201 -0.85,-2.641 z m -14.636,49.231 4.198,1.979 3.857,11.615 h 13.729 l -3.971,-13.198 -17.813,-7.919 z m -0.34,18.477 v 7.523 h 6.467 l -0.341,3.565 -3.29,1.056 v 7.522 l 18.153,-6.6 0.454,-5.543 h 34.151 l 0.454,5.543 18.493,6.734 v -7.524 l -3.63,-1.188 -0.34,-3.565 h 6.807 v -7.523 z m 73.406,-67.708 h 4.766 v -7.26 h -81.689 v 7.26 h 5.332 v 38.408 h 13.161 v -4.487 h 0.113 c 0.454,0.439 0.983,0.877 1.589,1.319 1.815,1.319 3.611,2.178 5.389,2.573 1.776,0.397 3.007,0.595 3.688,0.595 h 49.807 c -0.757,-0.97 -1.304,-1.98 -1.645,-3.036 -0.34,-1.056 -0.511,-2.421 -0.511,-4.092 z m -95.077,1.715 v 31.149 l 13.728,-2.377 v -29.828 l -16.565,-7.919 v 7.392 z m 0.114,38.673 v 13.858 l -3.858,0.792 v 4.751 l 17.359,-3.036 0.113,-19.138 z m 0,26.132 v 12.408 l -3.858,0.659 v 4.753 l 17.359,-3.036 0.113,-17.555 z" /><g
           transform="translate(384.9805,215.5469)"
           id="g26"><path
             id="path28"
             style="fill:#000000;fill-opacity:1;fill-rule:nonzero;stroke:none"
             d="m 0,0 h 12.253 l 1.476,-32.073 2.042,-2.904 v -8.447 L 1.702,-28.509 Z M 16.339,13.99 V 6.468 H -6.126 V -43.424 H -19.514 V 6.468 h -22.465 v 7.522 h 22.465 v 24.286 h -7.375 v -0.792 l -14.636,-8.05 v 7.127 l 2.269,1.584 v 1.054 11.22 h 12.254 1.588 c -0.379,-0.616 -0.681,-1.276 -0.908,-1.98 -0.227,-0.706 -0.416,-1.585 -0.567,-2.639 h 7.375 v 6.071 h 13.388 2.269 C -4.463,50.99 -4.918,50.108 -5.218,49.231 -5.522,48.35 -5.786,47.206 -6.013,45.8 H 5.106 l 1.475,2.376 h 8.963 L 9.53,38.276 H 7.035 -6.126 V 13.99 Z M -26.322,0 l -1.701,-28.509 -14.07,-14.915 v 8.447 l 2.043,2.904 L -38.461,0 Z m -20.535,29.697 1.133,-61.77 1.816,-3.035 -0.113,-8.316 -11.8,15.706 -1.135,57.547 z m -3.064,18.347 8.85,-0.134 -5.673,-9.502 -11.913,0.132 -0.454,-81.964 -12.594,0.132 0.454,81.832 -14.977,0.132 v 7.523 l 14.977,-0.132 v 5.676 h 12.594 l 2.155,-0.132 c -0.53,-0.706 -0.946,-1.475 -1.248,-2.31 -0.303,-0.837 -0.567,-1.914 -0.794,-3.234 h 7.488 z m -36.987,-91.468 v 8.316 l 1.815,3.167 1.701,61.77 h 10.439 l -1.702,-57.547 z" /></g><g
           transform="translate(412.4375,179.6465)"
           id="g30"><path
             id="path32"
             style="fill:#000000;fill-opacity:1;fill-rule:nonzero;stroke:none"
             d="M 0,0 H 23.032 V 48.968 H 4.084 v 7.787 h 41.299 l 0.795,1.715 h 8.963 L 49.809,48.968 H 36.761 V 0 H 59.793 V -7.523 H 0 Z M -0.454,73.912 V 81.7 h 59.906 l -1.135,6.071 H 71.933 L 73.181,81.7 h 13.16 l -1.701,4.751 h 12.707 l 4.311,-12.539 H 74.655 L 89.063,0.132 h 12.595 V -7.523 H 76.471 L 60.927,73.912 Z" /></g><path
           id="path34"
           style="fill:#000000;fill-opacity:1;fill-rule:nonzero;stroke:none"
           d="m 551.083,239.172 h 50.942 v -7.523 h -50.942 z m -24.168,-59.526 v 9.239 l 24.508,23.23 h -25.074 v 7.656 h 90.086 l 1.02,1.452 h 8.964 l -5.56,-9.108 h -50.942 l -29.159,-29.037 v -3.432 h 71.706 l -0.114,7.392 -18.72,18.874 h 15.997 l 16.565,-16.631 v -9.635 -7.523 h -99.277 z m 15.544,69.822 -2.723,-17.82 h -13.501 l 4.652,30.358 h 13.502 l -0.341,-2.771 c 1.889,1.142 3.705,1.912 5.446,2.31 1.739,0.395 2.949,0.548 3.631,0.461 h 55.367 1.248 12.367 l 4.653,-30.358 h -13.843 l -3.29,22.966 h -55.254 c -1.815,-0.088 -3.404,-0.308 -4.765,-0.659 -1.362,-0.352 -2.723,-0.97 -4.086,-1.848 -1.512,-0.969 -2.534,-1.848 -3.063,-2.639" /><g
           transform="translate(680.9932,179.9102)"
           id="g36"><path
             id="path38"
             style="fill:#000000;fill-opacity:1;fill-rule:nonzero;stroke:none"
             d="M 0,0 H 23.258 V 73.517 H 2.723 v 7.523 h 20.535 v 6.862 H 39.255 C 38.195,85.527 37.516,83.238 37.213,81.04 H 49.58 l 1.248,1.848 h 8.964 L 54.118,73.517 H 36.986 V 0 H 59.904 V -7.523 H 0 Z M -12.254,52.398 V 46.327 L 1.36,33.921 V 18.479 L -12.254,30.885 V -7.655 H -25.869 V 35.9 L -41.187,17.29 v 17.291 l 25.983,33.26 v 6.072 h -27.231 v 7.524 h 13.276 v 5.675 h 13.388 0.227 1.929 c -0.454,-0.442 -0.795,-0.882 -1.022,-1.321 -0.226,-0.44 -0.436,-1.012 -0.625,-1.715 -0.189,-0.706 -0.282,-1.541 -0.282,-2.508 v -0.131 h 0.34 H -1.589 0 c -0.53,-0.882 -0.929,-1.762 -1.192,-2.641 -0.266,-0.88 -0.397,-2.025 -0.397,-3.432 v -4.223 -3.893 -1.782 z" /></g><g
           transform="translate(81.1201,140.8809)"
           id="g40"><path
             id="path42"
             style="fill:#000000;fill-opacity:1;fill-rule:nonzero;stroke:none"
             d="m 0,0 c 0,-0.545 -0.15,-1.009 -0.45,-1.39 -0.3,-0.381 -0.684,-0.572 -1.153,-0.572 h -8.938 l 1.153,2.093 h 5.031 c 0.299,0 0.538,0.125 0.717,0.376 0.178,0.25 0.267,0.56 0.267,0.93 V 20.011 H 0.309 C 0.215,19.772 0.141,19.526 0.084,19.276 0.028,19.025 0,18.682 0,18.246 Z" /></g><g
           transform="translate(107.5986,160.7939)"
           id="g44"><path
             id="path46"
             style="fill:#000000;fill-opacity:1;fill-rule:nonzero;stroke:none"
             d="M 0,0 H 3.738 C 3.626,-0.218 3.542,-0.447 3.485,-0.687 3.429,-0.927 3.401,-1.242 3.401,-1.635 v -3.499 c 0,-2.093 0.004,-4.426 0.014,-6.997 0.009,-2.572 0.014,-5.832 0.014,-9.777 H 0 Z" /></g><g
           transform="translate(144.7295,158.832)"
           id="g48"><path
             id="path50"
             style="fill:#000000;fill-opacity:1;fill-rule:nonzero;stroke:none"
             d="M 0,0 -2.642,-10.496 H 6.577 L 3.936,0 Z m 8.995,-19.946 -1.912,7.455 H -3.148 l -1.883,-7.455 h -3.486 l 5.538,21.941 h 9.894 l 5.537,-21.941 z" /></g><g
           transform="translate(189.3101,138.8525)"
           id="g52"><path
             id="path54"
             style="fill:#000000;fill-opacity:1;fill-rule:nonzero;stroke:none"
             d="m 0,0 v 11.347 l -7.786,6.573 v 4.447 l 9.585,-7.978 9.557,7.978 V 17.92 L 3.373,11.184 V 6.606 L 3.373,0 Z" /></g><g
           transform="translate(226.3564,160.7939)"
           id="g56"><path
             id="path58"
             style="fill:#000000;fill-opacity:1;fill-rule:nonzero;stroke:none"
             d="M 0,0 H 3.739 C 3.626,-0.218 3.542,-0.447 3.486,-0.687 3.43,-0.927 3.401,-1.242 3.401,-1.635 v -3.499 c 0,-2.093 0.005,-4.426 0.014,-6.997 0.01,-2.572 0.015,-5.832 0.015,-9.777 H 0 Z" /></g><g
           transform="translate(259.1597,141.3379)"
           id="g60"><path
             id="path62"
             style="fill:#000000;fill-opacity:1;fill-rule:nonzero;stroke:none"
             d="M 0,0 V -0.359 H 16.247 V -2.452 H -3.317 v 0.49 1.047 0.556 1.275 0.523 L 11.89,17.07 v 0.424 h -15.6 v 2.093 h 19.479 c -0.187,-0.24 -0.328,-0.484 -0.421,-0.736 -0.095,-0.25 -0.141,-0.582 -0.141,-0.997 v -0.98 -1.342 z" /></g><g
           transform="translate(304.0771,149.1211)"
           id="g64"><path
             id="path66"
             style="fill:#000000;fill-opacity:1;fill-rule:nonzero;stroke:none"
             d="m 0,0 v -4.904 -5.298 H -3.261 V 11.706 H 0.31 C 0.216,11.488 0.141,11.264 0.084,11.036 0.028,10.807 0,10.485 0,10.071 V 8.354 4.676 0.751 L 0.956,2.06 h 11.778 v 9.646 h 3.598 c -0.113,-0.218 -0.198,-0.442 -0.253,-0.67 -0.057,-0.229 -0.085,-0.551 -0.085,-0.965 v -3.482 -6.982 -9.809 h -3.26 V 0 Z" /></g><g
           transform="translate(361.3628,142.1553)"
           id="g68"><path
             id="path70"
             style="fill:#000000;fill-opacity:1;fill-rule:nonzero;stroke:none"
             d="M 0,0 V 18.705 H 3.794 C 3.644,18.486 3.527,18.246 3.443,17.985 3.358,17.724 3.316,17.396 3.316,17.004 V -1.34 C 3.316,-1.863 3.152,-2.316 2.824,-2.696 2.496,-3.078 2.098,-3.27 1.63,-3.27 h -17.062 v 21.975 h 3.317 V -2.681 l 1.011,1.407 h 9.979 c 0.319,0 0.586,0.125 0.801,0.375 C -0.109,-0.648 0,-0.349 0,0" /></g><g
           transform="translate(409.3447,140.9131)"
           id="g72"><path
             id="path74"
             style="fill:#000000;fill-opacity:1;fill-rule:nonzero;stroke:none"
             d="m 0,0 c 0,-0.546 -0.146,-1.014 -0.437,-1.406 -0.29,-0.392 -0.67,-0.588 -1.138,-0.588 h -17.202 v 2.026 h 14.419 c 0.319,0.023 0.562,0.158 0.731,0.409 0.168,0.25 0.253,0.561 0.253,0.933 v 1.93 4.936 h -12.958 -2.221 v 11.641 h 3.345 v -0.783 c 0.338,0.346 0.712,0.565 1.125,0.653 0.412,0.086 0.721,0.13 0.927,0.13 h 0.056 11.16 l 0.252,0.36 h 2.222 l -1.35,-2.387 h -12.621 c -0.281,-0.021 -0.52,-0.065 -0.716,-0.131 -0.198,-0.065 -0.389,-0.175 -0.577,-0.327 -0.187,-0.153 -0.347,-0.36 -0.478,-0.621 V 16.644 9.418 l 0.815,0.85 H 0.562 C 0.373,10.027 0.238,9.782 0.153,9.532 0.069,9.28 0.027,8.948 0.027,8.535 L 0,1.275 Z" /></g><g
           transform="translate(438.9971,149.1211)"
           id="g76"><path
             id="path78"
             style="fill:#000000;fill-opacity:1;fill-rule:nonzero;stroke:none"
             d="m 0,0 v -4.904 -5.298 H -3.26 V 11.706 H 0.31 C 0.216,11.488 0.142,11.264 0.085,11.036 0.029,10.807 0,10.485 0,10.071 V 8.354 4.676 0.751 L 0.956,2.06 h 11.777 v 9.646 h 3.599 C 16.22,11.488 16.135,11.264 16.078,11.036 16.022,10.807 15.994,10.485 15.994,10.071 V 6.589 -0.393 -10.202 H 12.733 V 0 Z" /></g><g
           transform="translate(480.7939,160.7939)"
           id="g80"><path
             id="path82"
             style="fill:#000000;fill-opacity:1;fill-rule:nonzero;stroke:none"
             d="M 0,0 H 3.739 C 3.627,-0.218 3.542,-0.447 3.485,-0.687 3.429,-0.927 3.401,-1.242 3.401,-1.635 v -3.499 c 0,-2.093 0.005,-4.426 0.014,-6.997 0.01,-2.572 0.014,-5.832 0.014,-9.777 H 0 Z" /></g><g
           transform="translate(513.541,149.1211)"
           id="g84"><path
             id="path86"
             style="fill:#000000;fill-opacity:1;fill-rule:nonzero;stroke:none"
             d="m 0,0 v -4.904 -5.298 H -3.26 V 11.706 H 0.309 C 0.216,11.488 0.142,11.264 0.085,11.036 0.029,10.807 0,10.485 0,10.071 V 8.354 4.676 0.751 L 0.956,2.06 h 11.777 v 9.646 h 3.599 C 16.22,11.488 16.135,11.264 16.078,11.036 16.021,10.807 15.994,10.485 15.994,10.071 V 6.589 -0.393 -10.202 H 12.733 V 0 Z" /></g><g
           transform="translate(570.8262,142.1553)"
           id="g88"><path
             id="path90"
             style="fill:#000000;fill-opacity:1;fill-rule:nonzero;stroke:none"
             d="M 0,0 V 18.705 H 3.795 C 3.644,18.486 3.527,18.246 3.443,17.985 3.358,17.724 3.317,17.396 3.317,17.004 V -1.34 C 3.317,-1.863 3.152,-2.316 2.825,-2.696 2.497,-3.078 2.098,-3.27 1.631,-3.27 h -17.063 v 21.975 h 3.318 V -2.681 l 1.01,1.407 h 9.979 c 0.318,0 0.586,0.125 0.802,0.375 C -0.107,-0.648 0,-0.349 0,0" /></g><g
           transform="translate(600.3125,160.7939)"
           id="g92"><path
             id="path94"
             style="fill:#000000;fill-opacity:1;fill-rule:nonzero;stroke:none"
             d="M 0,0 H 3.739 C 3.627,-0.218 3.541,-0.447 3.485,-0.687 3.429,-0.927 3.401,-1.242 3.401,-1.635 v -3.499 c 0,-2.093 0.004,-4.426 0.014,-6.997 0.01,-2.572 0.014,-5.832 0.014,-9.777 H 0 Z" /></g><g
           transform="translate(648.3779,140.9131)"
           id="g96"><path
             id="path98"
             style="fill:#000000;fill-opacity:1;fill-rule:nonzero;stroke:none"
             d="m 0,0 c 0,-0.546 -0.146,-1.014 -0.437,-1.406 -0.29,-0.392 -0.669,-0.588 -1.138,-0.588 h -17.202 v 2.026 h 14.421 c 0.318,0.023 0.561,0.158 0.73,0.409 0.169,0.25 0.252,0.561 0.252,0.933 v 1.93 4.936 h -12.958 -2.221 v 11.641 h 3.346 v -0.783 c 0.338,0.346 0.712,0.565 1.124,0.653 0.412,0.086 0.721,0.13 0.927,0.13 h 0.056 11.16 l 0.253,0.36 h 2.221 l -1.349,-2.387 h -12.622 c -0.281,-0.021 -0.519,-0.065 -0.715,-0.131 -0.199,-0.065 -0.391,-0.175 -0.577,-0.327 -0.187,-0.153 -0.348,-0.36 -0.478,-0.621 V 16.644 9.418 l 0.815,0.85 H 0.562 C 0.374,10.027 0.239,9.782 0.154,9.532 0.07,9.28 0.027,8.948 0.027,8.535 L 0,1.275 Z" /></g><g
           transform="translate(678.0322,149.1211)"
           id="g100"><path
             id="path102"
             style="fill:#000000;fill-opacity:1;fill-rule:nonzero;stroke:none"
             d="m 0,0 v -4.904 -5.298 H -3.26 V 11.706 H 0.31 C 0.216,11.488 0.142,11.264 0.085,11.036 0.029,10.807 0,10.485 0,10.071 V 8.354 4.676 0.751 L 0.956,2.06 h 11.777 v 9.646 h 3.599 C 16.22,11.488 16.135,11.264 16.078,11.036 16.022,10.807 15.994,10.485 15.994,10.071 V 6.589 -0.393 -10.202 H 12.733 V 0 Z" /></g><g
           transform="translate(739.1689,140.9785)"
           id="g104"><path
             id="path106"
             style="fill:#000000;fill-opacity:1;fill-rule:nonzero;stroke:none"
             d="m 0,0 v -2.06 h -19.677 v 21.909 h 3.261 v -0.786 c 0.338,0.349 0.674,0.568 1.012,0.656 0.338,0.086 0.6,0.13 0.787,0.13 h 0.029 11.917 l 0.253,0.36 h 2.22 l -1.348,-2.42 h -13.155 c -0.244,-0.021 -0.46,-0.065 -0.647,-0.132 -0.188,-0.064 -0.375,-0.175 -0.563,-0.327 -0.187,-0.152 -0.356,-0.359 -0.505,-0.62 V 16.611 8.894 l 0.956,1.308 H -0.843 V 8.143 H -16.416 V -1.34 L -15.377,0 Z" /></g><g
           transform="translate(453.2939,586.375)"
           id="g108"><path
             id="path110"
             style="fill:#c30d23;fill-opacity:1;fill-rule:nonzero;stroke:none"
             d="M 0,0 -46.548,-82.156 -91.188,0 Z" /></g><g
           transform="translate(405.3184,464.5762)"
           id="g112"><path
             id="path114"
             style="fill:#c30d23;fill-opacity:1;fill-rule:nonzero;stroke:none"
             d="m 0,0 v 0 0 l 8.747,14.631 h 41.325 l -61.638,-105.066 10.156,-16.11 134.961,228.344 h 40.5 L -1.41,-181.492 -54.077,-90.455 Z" /></g><g
           transform="translate(336.7983,586.375)"
           id="g116"><path
             id="path118"
             style="fill:#c30d23;fill-opacity:1;fill-rule:nonzero;stroke:none"
             d="M 0,0 43.253,-76.886 58.041,-103.172 37.479,-139.464 -41.133,0 Z" /></g><g
           transform="translate(340.1685,533.8418)"
           id="g120"><path
             id="path122"
             style="fill:#c30d23;fill-opacity:1;fill-rule:nonzero;stroke:none"
             d="m 0,0 h -51.482 l 22.764,-36.423 h 53.233 z" /></g><g
           transform="translate(459.4658,347.0947)"
           id="g124"><path
             id="path126"
             style="fill:#c30d23;fill-opacity:1;fill-rule:nonzero;stroke:none"
             d="m 0,0 c 54.713,22.389 93.374,76.179 93.374,138.854 0,7.325 -0.554,14.521 -1.573,21.569 l 18.355,32.076 c 5.455,-16.917 8.434,-34.937 8.434,-53.645 0,-83.465 -58.688,-153.44 -136.952,-170.942 z" /></g><g
           transform="translate(499.249,600.7339)"
           id="g128"><path
             id="path130"
             style="fill:#c30d23;fill-opacity:1;fill-rule:nonzero;stroke:none"
             d="m 0,0 c -26.088,21.943 -59.715,35.197 -96.392,35.197 -36.676,0 -70.303,-13.254 -96.391,-35.197 h -35.797 c 32.146,36.971 79.467,60.413 132.188,60.413 C -43.669,60.413 3.651,36.971 35.797,0 Z" /></g><g
           transform="translate(254.9868,510.8794)"
           id="g132"><path
             id="path134"
             style="fill:#c30d23;fill-opacity:1;fill-rule:nonzero;stroke:none"
             d="m 0,0 c -1.364,-8.114 -2.111,-16.435 -2.111,-24.93 0,-62.246 38.124,-115.746 92.243,-138.407 l 17.728,-32.127 c -77.379,18.154 -135.187,87.697 -135.187,170.534 0,19.977 3.407,39.164 9.594,57.066 z" /></g><g
           transform="translate(394.8394,483.2031)"
           id="g136"><path
             id="path138"
             style="fill:#c30d23;fill-opacity:1;fill-rule:nonzero;stroke:none"
             d="m 0,0 -52.795,-93.184 -21.628,49.768 12.13,9.925 34.736,51.276 z" /></g><g
           transform="translate(334.9687,472.8691)"
           id="g140"><path
             id="path142"
             style="fill:#c30d23;fill-opacity:1;fill-rule:nonzero;stroke:none"
             d="m 0,0 h -40.855 l 47.93,-82.85 20.118,35.508 z" /></g><g
           transform="translate(320.8672,497.4189)"
           id="g144"><path
             id="path146"
             style="fill:#c30d23;fill-opacity:1;fill-rule:nonzero;stroke:none"
             d="M 0,0 -51.096,88.956 H -92.419 L -40.956,0 Z" /></g></g></g></g></svg>